<svg xmlns="http://www.w3.org/2000/svg" version="1.1" xmlns:xlink="http://www.w3.org/1999/xlink" xmlns:svgjs="http://svgjs.com/svgjs" width="1440" height="560" preserveAspectRatio="none" viewBox="0 0 1440 560"><g mask="url(&quot;#SvgjsMask1000&quot;)" fill="none"><rect width="1440" height="560" x="0" y="0" fill="#0e2a47"></rect><path d="M 0,60 C 57.6,94.8 172.8,223.8 288,234 C 403.2,244.2 460.8,116 576,111 C 691.2,106 748.8,231 864,209 C 979.2,187 1036.8,13 1152,1 C 1267.2,-11 1382.4,119.4 1440,149L1440 560L0 560z" fill="#184a7e"></path><path d="M 0,333 C 96,353.6 288,442.6 480,436 C 672,429.4 768,300.8 960,300 C 1152,299.2 1344,405.6 1440,432L1440 560L0 560z" fill="#2264ab"></path></g><defs><mask id="SvgjsMask1000"><rect width="1440" height="560" fill="#ffffff"></rect></mask></defs></svg>